# Blender v2.79 (sub 0) OBJ File: 'Portal edge effect smooth.blend'
# www.blender.org
mtllib PortalEdgeEffect_smooth.mtl
o Cube.002_Cube.000
v -1.000000 -1.000000 -0.000000
v -1.318458 -0.005124 -0.890722
v -1.318458 -0.005125 0.890722
v 1.318458 -0.005125 0.890722
v 1.318458 -0.005124 -0.890722
v 1.000000 -1.000000 -0.000000
v 0.000000 -1.000000 -1.000000
v 0.495839 -1.000000 -1.000000
v 0.890722 -0.005124 -1.318458
v -1.000000 -1.000000 -0.495839
v -0.990313 -1.000000 -0.594196
v -1.310239 -0.005124 -0.974169
v -0.961623 -1.000000 -0.688773
v -1.285899 -0.005124 -1.054410
v -0.915034 -1.000000 -0.775936
v -1.246372 -0.005124 -1.128360
v -0.852335 -1.000000 -0.852335
v -1.193177 -0.005124 -1.193177
v -0.775936 -1.000000 -0.915034
v -1.128359 -0.005124 -1.246372
v -0.688773 -1.000000 -0.961623
v -1.054410 -0.005124 -1.285899
v -0.594196 -1.000000 -0.990313
v -0.974169 -0.005124 -1.310240
v -0.495839 -1.000000 -1.000000
v -0.890722 -0.005124 -1.318458
v -1.000000 -1.000000 0.495839
v -1.310239 -0.005125 0.974169
v -0.990313 -1.000000 0.594196
v -1.285899 -0.005125 1.054410
v -0.961623 -1.000000 0.688773
v -1.246372 -0.005125 1.128359
v -0.915034 -1.000000 0.775936
v -1.193177 -0.005125 1.193177
v -0.852335 -1.000000 0.852335
v -1.128360 -0.005125 1.246372
v -0.775936 -1.000000 0.915033
v -1.054410 -0.005125 1.285899
v -0.688773 -1.000000 0.961623
v -0.974170 -0.005125 1.310239
v -0.594196 -1.000000 0.990313
v -0.890722 -0.005125 1.318458
v -0.495839 -1.000000 1.000000
v 1.000000 -1.000000 0.495839
v 0.990313 -1.000000 0.594196
v 1.310239 -0.005125 0.974169
v 0.961623 -1.000000 0.688773
v 1.285899 -0.005125 1.054410
v 0.915034 -1.000000 0.775936
v 1.246372 -0.005125 1.128360
v 0.852335 -1.000000 0.852334
v 1.193177 -0.005125 1.193177
v 0.775936 -1.000000 0.915033
v 1.128360 -0.005125 1.246372
v 0.688773 -1.000000 0.961623
v 1.054410 -0.005125 1.285899
v 0.594196 -1.000000 0.990312
v 0.974169 -0.005125 1.310239
v 0.495839 -1.000000 1.000000
v 0.890722 -0.005125 1.318458
v 1.000000 -1.000000 -0.495839
v 1.310239 -0.005124 -0.974169
v 0.990313 -1.000000 -0.594196
v 1.285899 -0.005124 -1.054410
v 0.961623 -1.000000 -0.688773
v 1.246372 -0.005124 -1.128360
v 0.915034 -1.000000 -0.775936
v 1.193177 -0.005124 -1.193177
v 0.852335 -1.000000 -0.852335
v 1.128360 -0.005124 -1.246372
v 0.775936 -1.000000 -0.915034
v 1.054410 -0.005124 -1.285899
v 0.688773 -1.000000 -0.961623
v 0.974170 -0.005124 -1.310239
v 0.594196 -1.000000 -0.990313
v 0.000000 -1.000000 1.000000
vt 0.500000 0.015625
vt 0.121094 0.984375
vt 0.875000 0.984375
vt 0.121094 0.984375
vt 0.875000 0.984375
vt 0.500000 0.015625
vt 0.500000 0.015625
vt 0.207031 0.015625
vt 0.121094 0.984375
vt 0.207031 0.015625
vt 0.148438 0.015625
vt 0.085938 0.984375
vt 0.093750 0.015625
vt 0.054688 0.984375
vt 0.035156 0.015625
vt 0.023438 0.984375
vt 0.000000 0.015625
vt 0.000000 0.984375
vt 1.000000 0.984375
vt 1.000000 0.015625
vt 0.957031 0.015625
vt 0.976562 0.984375
vt 0.906250 0.015625
vt 0.945312 0.984375
vt 0.855469 0.015625
vt 0.910156 0.984375
vt 0.792969 0.015625
vt 0.875000 0.984375
vt 0.792969 0.015625
vt 0.910156 0.984375
vt 0.855469 0.015625
vt 0.945312 0.984375
vt 0.906250 0.015625
vt 0.976562 0.984375
vt 0.957031 0.015625
vt 1.000000 0.984375
vt 1.000000 0.015625
vt 0.000000 0.015625
vt 0.000000 0.984375
vt 0.023438 0.984375
vt 0.035156 0.015625
vt 0.054688 0.984375
vt 0.093750 0.015625
vt 0.085938 0.984375
vt 0.148438 0.015625
vt 0.121094 0.984375
vt 0.207031 0.015625
vt 0.207031 0.015625
vt 0.148438 0.015625
vt 0.085938 0.984375
vt 0.093750 0.015625
vt 0.054688 0.984375
vt 0.035156 0.015625
vt 0.023438 0.984375
vt 0.000000 0.015625
vt 0.000000 0.984375
vt 1.000000 0.984375
vt 1.000000 0.015625
vt 0.957031 0.015625
vt 0.976562 0.984375
vt 0.906250 0.015625
vt 0.945312 0.984375
vt 0.855469 0.015625
vt 0.910156 0.984375
vt 0.792969 0.015625
vt 0.875000 0.984375
vt 0.792969 0.015625
vt 0.910156 0.984375
vt 0.855469 0.015625
vt 0.945312 0.984375
vt 0.906250 0.015625
vt 0.976562 0.984375
vt 0.957031 0.015625
vt 1.000000 0.984375
vt 1.000000 0.015625
vt 0.000000 0.015625
vt 0.000000 0.984375
vt 0.023438 0.984375
vt 0.035156 0.015625
vt 0.054688 0.984375
vt 0.093750 0.015625
vt 0.085938 0.984375
vt 0.148438 0.015625
vt 0.500000 0.015625
vn 0.9524 0.3049 0.0000
vn -0.9524 0.3049 0.0000
vn 0.0000 0.3049 0.9524
vn 0.9371 0.3366 0.0923
vn 0.9187 0.3586 0.1654
vn 0.9089 0.3675 0.1970
vn 0.8503 0.4020 0.3397
vn 0.8402 0.4060 0.3596
vn 0.7548 0.4276 0.4974
vn 0.7482 0.4286 0.5064
vn 0.6363 0.4360 0.6364
vn 0.4974 0.4276 0.7548
vn 0.5064 0.4286 0.7482
vn 0.3397 0.4020 0.8503
vn 0.3596 0.4060 0.8402
vn 0.1654 0.3586 0.9187
vn 0.1970 0.3675 0.9089
vn 0.0923 0.3366 0.9371
vn 0.9371 0.3366 -0.0923
vn 0.9089 0.3675 -0.1970
vn 0.9187 0.3586 -0.1654
vn 0.8402 0.4060 -0.3596
vn 0.8503 0.4020 -0.3397
vn 0.7482 0.4286 -0.5064
vn 0.7548 0.4276 -0.4974
vn 0.6363 0.4360 -0.6364
vn 0.5064 0.4286 -0.7482
vn 0.4974 0.4276 -0.7548
vn 0.3596 0.4060 -0.8402
vn 0.3397 0.4020 -0.8503
vn 0.1970 0.3675 -0.9089
vn 0.1654 0.3586 -0.9187
vn 0.0923 0.3366 -0.9371
vn -0.9371 0.3366 -0.0923
vn -0.9187 0.3586 -0.1654
vn -0.9089 0.3675 -0.1970
vn -0.8503 0.4020 -0.3397
vn -0.8402 0.4060 -0.3596
vn -0.7548 0.4276 -0.4974
vn -0.7482 0.4286 -0.5064
vn -0.6363 0.4360 -0.6364
vn -0.4974 0.4276 -0.7548
vn -0.5064 0.4286 -0.7482
vn -0.3397 0.4020 -0.8503
vn -0.3596 0.4060 -0.8402
vn -0.1654 0.3586 -0.9187
vn -0.1970 0.3675 -0.9089
vn -0.0923 0.3366 -0.9371
vn -0.9371 0.3366 0.0923
vn -0.9089 0.3675 0.1970
vn -0.9187 0.3586 0.1654
vn -0.8402 0.4060 0.3596
vn -0.8503 0.4020 0.3397
vn -0.7482 0.4286 0.5064
vn -0.7548 0.4276 0.4974
vn -0.6363 0.4360 0.6364
vn -0.5064 0.4286 0.7482
vn -0.4974 0.4276 0.7548
vn -0.3596 0.4060 0.8402
vn -0.3397 0.4020 0.8503
vn -0.1970 0.3675 0.9089
vn -0.1654 0.3586 0.9187
vn -0.0923 0.3366 0.9371
vn 0.0000 0.3049 -0.9524
usemtl None.001
s 1
f 1/1/1 2/2/1 3/3/1
f 4/4/2 5/5/2 6/6/2
f 7/7/3 8/8/3 9/9/3
f 2/2/4 10/10/4 11/11/5 12/12/6
f 12/12/6 11/11/5 13/13/7 14/14/8
f 14/14/8 13/13/7 15/15/9 16/16/10
f 16/16/10 15/15/9 17/17/11 18/18/11
f 18/19/11 17/20/11 19/21/12 20/22/13
f 20/22/13 19/21/12 21/23/14 22/24/15
f 22/24/15 21/23/14 23/25/16 24/26/17
f 24/26/17 23/25/16 25/27/18 26/28/18
f 27/29/19 3/3/19 28/30/20 29/31/21
f 29/31/21 28/30/20 30/32/22 31/33/23
f 31/33/23 30/32/22 32/34/24 33/35/25
f 33/35/25 32/34/24 34/36/26 35/37/26
f 35/38/26 34/39/26 36/40/27 37/41/28
f 37/41/28 36/40/27 38/42/29 39/43/30
f 39/43/30 38/42/29 40/44/31 41/45/32
f 41/45/32 40/44/31 42/46/33 43/47/33
f 4/4/34 44/48/34 45/49/35 46/50/36
f 46/50/36 45/49/35 47/51/37 48/52/38
f 48/52/38 47/51/37 49/53/39 50/54/40
f 50/54/40 49/53/39 51/55/41 52/56/41
f 52/57/41 51/58/41 53/59/42 54/60/43
f 54/60/43 53/59/42 55/61/44 56/62/45
f 56/62/45 55/61/44 57/63/46 58/64/47
f 58/64/47 57/63/46 59/65/48 60/66/48
f 61/67/49 5/5/49 62/68/50 63/69/51
f 63/69/51 62/68/50 64/70/52 65/71/53
f 65/71/53 64/70/52 66/72/54 67/73/55
f 67/73/55 66/72/54 68/74/56 69/75/56
f 69/76/56 68/77/56 70/78/57 71/79/58
f 71/79/58 70/78/57 72/80/59 73/81/60
f 73/81/60 72/80/59 74/82/61 75/83/62
f 75/83/62 74/82/61 9/9/63 8/8/63
f 60/66/64 76/84/64 42/46/64
f 3/3/1 27/29/1 1/1/1
f 1/1/1 10/10/1 2/2/1
f 61/67/2 6/6/2 5/5/2
f 44/48/2 4/4/2 6/6/2
f 9/9/3 26/28/3 7/7/3
f 25/27/3 7/7/3 26/28/3
f 43/47/64 42/46/64 76/84/64
f 60/66/64 59/65/64 76/84/64
