# Blender v2.78 (sub 0) OBJ File: 'PortalEdgeEffect.blend'
# www.blender.org
mtllib PortalEdgeEffect.mtl
o Cube.002_Cube.003
v -1.000000 -1.000000 1.000000
v -1.554031 -0.064341 1.554031
v -1.000000 -1.000000 -1.000000
v -1.554031 -0.064341 -1.554031
v 1.000000 -1.000000 1.000000
v 1.554031 -0.064341 1.554031
v 1.000000 -1.000000 -1.000000
v 1.554031 -0.064341 -1.554031
v 0.000000 -1.000000 -1.000000
v -1.000000 -1.000000 0.000000
v 1.000000 -1.000000 0.000000
v 0.000000 -1.000000 1.000000
vt 0.0000 1.0000
vt 0.5000 0.0000
vt 0.0000 0.0000
vt 0.0000 1.0000
vt 0.0000 0.0000
vt 0.5000 0.0000
vt 1.0000 0.0000
vt 1.0000 1.0000
vt 0.0000 0.0002
vt 0.5000 0.0000
vt 0.0002 0.9998
vt 1.0000 0.9998
vt 1.0000 0.0000
vt 1.0000 1.0000
vt 0.5000 0.0000
vt 0.0000 1.0000
vt 0.0000 0.0000
vt 1.0000 0.0000
vn -0.8605 0.5095 0.0000
vn 0.0000 0.5095 0.8605
vn 0.8605 0.5095 0.0000
vn 0.0000 0.5095 -0.8605
usemtl None
s off
f 6/1/1 11/2/1 5/3/1
f 4/4/2 3/5/2 9/6/2
f 7/7/1 11/2/1 8/8/1
f 1/9/3 10/10/3 2/11/3
f 8/8/2 4/4/2 9/6/2
f 4/12/3 2/11/3 10/10/3
f 8/8/1 11/2/1 6/1/1
f 3/13/3 4/12/3 10/10/3
f 7/7/2 8/8/2 9/6/2
f 6/14/4 12/15/4 2/16/4
f 2/16/4 12/15/4 1/17/4
f 5/18/4 12/15/4 6/14/4
